<svg width="13.000000" height="14.000000" viewBox="0 0 13 14" fill="none" xmlns="http://www.w3.org/2000/svg">
	<desc>
			Created with Pixso.
	</desc>
	<defs/>
	<path id="Vector" d="M12.8 12.75L9.59 9.28C10.42 8.26 10.87 6.98 10.87 5.65C10.87 2.53 8.43 0 5.43 0C2.43 0 0 2.53 0 5.65C0 8.76 2.43 11.3 5.43 11.3C6.56 11.3 7.63 10.95 8.55 10.28L11.77 13.77C11.91 13.91 12.09 14 12.29 14C12.47 14 12.64 13.92 12.78 13.79C13.06 13.51 13.07 13.04 12.8 12.75ZM5.43 1.47C7.65 1.47 9.45 3.34 9.45 5.65C9.45 7.95 7.65 9.83 5.43 9.83C3.22 9.83 1.41 7.95 1.41 5.65C1.41 3.34 3.22 1.47 5.43 1.47Z" fill="#222222" fill-opacity="1.000000" fill-rule="nonzero"/>
</svg>
